<svg width="16" height="16" viewBox="0 0 16 16" fill="none" xmlns="http://www.w3.org/2000/svg">
<path d="M7.99984 5.83464C7.99984 4.08573 9.4176 2.66797 11.1665 2.66797C12.9154 2.66797 14.3332 4.08573 14.3332 5.83464V6.0013V6.31003C14.3332 6.98527 14.1886 7.65269 13.9092 8.2674C13.0947 10.0592 11.8284 11.6084 10.2346 12.7632L8.86695 13.7539C8.3496 14.1287 7.65 14.1287 7.13265 13.7539L5.76508 12.7632C4.17122 11.6084 2.90494 10.0592 2.09049 8.26742C1.81107 7.65269 1.6665 6.98527 1.6665 6.31001V6.0013V5.83464C1.6665 4.08573 3.08427 2.66797 4.83317 2.66797C6.58207 2.66797 7.99984 4.08573 7.99984 5.83464Z" fill="#FF6969"/>
</svg>
