<svg xmlns="http://www.w3.org/2000/svg" xmlns:xlink="http://www.w3.org/1999/xlink" viewBox="0 0 32 32"><defs><style>.cls-1{fill:#8473fb;}.cls-2{fill:#d0c1ff;}.cls-3{fill:url(#무제_그라디언트_19);}.cls-4{fill:#7967fa;}.cls-5{fill:#5d4cf5;}.cls-6{fill:#9582ff;}.cls-7{fill:url(#무제_그라디언트_23);}.cls-8{fill:url(#무제_그라디언트_28);}.cls-9{fill:#715ff9;}.cls-10{fill:#5d4cf6;}.cls-11{fill:none;}</style><linearGradient id="무제_그라디언트_19" x1="11.38" y1="9.62" x2="11.4" y2="9.62" gradientUnits="userSpaceOnUse"><stop offset="0" stop-color="#baaaff"/><stop offset="1" stop-color="#b8a7ff"/></linearGradient><linearGradient id="무제_그라디언트_23" x1="24.39" y1="16.8" x2="24.4" y2="27.47" gradientUnits="userSpaceOnUse"><stop offset="0" stop-color="#a292ff"/><stop offset="1" stop-color="#7461fa"/></linearGradient><linearGradient id="무제_그라디언트_28" x1="8.75" y1="23.39" x2="27.45" y2="23.39" gradientUnits="userSpaceOnUse"><stop offset="0" stop-color="#5948f5"/><stop offset="1" stop-color="#806efb"/></linearGradient></defs><g id="레이어_2" data-name="레이어 2"><g id="Layer_1" data-name="Layer 1"><path class="cls-1" d="M6.71,3.8l-2-.26h-.6A11.67,11.67,0,0,1,8.71,1.88"/><path class="cls-2" d="M24.16,14l.23-.23A17.26,17.26,0,0,0,17,3.4S10.71-.54,4.73,3.54c0,0,5.65,6.08,7,13.2l1.35-.15"/><path class="cls-3" d="M13.1,16.59C12,9.81,6.71,3.8,6.71,3.8A10.9,10.9,0,0,1,18.89,5.46,17.11,17.11,0,0,1,24.16,14Z"/><path class="cls-4" d="M13.1,16.59C12,9.81,6.71,3.8,6.71,3.8l-2-.26s5.65,6.08,7,13.2l1.36-.15"/><path class="cls-5" d="M11.75,16.74c-1.37-7.12-7-13.2-7-13.2h-.6s5.72,6.22,7,13.2h.57"/><polygon class="cls-6" points="14.87 16.61 13.45 17.01 13.02 17.35 13.52 17.7 26.07 17.24 27.44 16.83 27.87 16.46 27.41 16.13 14.87 16.61"/><path class="cls-7" d="M20.92,28.56c6.81-3.8,6.52-11.73,6.52-11.73l.43-.37s.23,8.46-6.95,12.1"/><path class="cls-8" d="M9.77,28.65a13,13,0,0,0,10.68-.9,13.31,13.31,0,0,0,5.62-10.51l1.37-.41s.29,7.93-6.52,11.73a14.63,14.63,0,0,1-12.17.19Z"/><path class="cls-9" d="M13.52,17.7l12.57-.46a13.34,13.34,0,0,1-5.63,10.51,13,13,0,0,1-10.69.9S13.18,22.44,13.52,17.7Z"/><path class="cls-10" d="M9.77,28.66s3.42-6.21,3.76-11L13,17.35a27,27,0,0,1-4.27,11.4Z"/><rect class="cls-11" width="32" height="32"/></g></g></svg>