<svg width="9" height="10" viewBox="0 0 9 10" fill="none" xmlns="http://www.w3.org/2000/svg">
<path fill-rule="evenodd" clip-rule="evenodd" d="M0 2C0 2.82843 0.671573 3.5 1.5 3.5C2.32843 3.5 3 2.82843 3 2C3 1.17157 2.32843 0.5 1.5 0.5C0.671573 0.5 0 1.17157 0 2ZM6 2C6 2.82843 6.67157 3.5 7.5 3.5C8.32843 3.5 9 2.82843 9 2C9 1.17157 8.32843 0.5 7.5 0.5C6.67157 0.5 6 1.17157 6 2ZM7.5 9.5C6.67157 9.5 6 8.82843 6 8C6 7.17157 6.67157 6.5 7.5 6.5C8.32843 6.5 9 7.17157 9 8C9 8.82843 8.32843 9.5 7.5 9.5ZM0 8C0 8.82843 0.671573 9.5 1.5 9.5C2.32843 9.5 3 8.82843 3 8C3 7.17157 2.32843 6.5 1.5 6.5C0.671573 6.5 0 7.17157 0 8Z" fill="#717171"/>
</svg>
