<svg width="14" height="14" viewBox="0 0 14 14" fill="none" xmlns="http://www.w3.org/2000/svg">
<path d="M1 3.1H2.33333M2.33333 3.1H13M2.33333 3.1V12.2C2.33333 12.5448 2.47381 12.8754 2.72386 13.1192C2.97391 13.363 3.31304 13.5 3.66667 13.5H10.3333C10.687 13.5 11.0261 13.363 11.2761 13.1192C11.5262 12.8754 11.6667 12.5448 11.6667 12.2V3.1H2.33333ZM4.33333 3.1V1.8C4.33333 1.45522 4.47381 1.12456 4.72386 0.880761C4.97391 0.636964 5.31304 0.5 5.66667 0.5H8.33333C8.68696 0.5 9.02609 0.636964 9.27614 0.880761C9.52619 1.12456 9.66667 1.45522 9.66667 1.8V3.1M5.66667 6.35V10.25M8.33333 6.35V10.25" stroke="#DCDCDC" stroke-linecap="round" stroke-linejoin="round"/>
</svg>
