<svg width="16" height="16" viewBox="0 0 16 16" fill="none" xmlns="http://www.w3.org/2000/svg">
<path d="M2.6665 4.11765H13.3332M6.6665 11.1765V6.94118M9.33317 11.1765V6.94118M10.6665 14H5.33317C4.59679 14 3.99984 13.3679 3.99984 12.5882V4.82353C3.99984 4.43368 4.29831 4.11765 4.6665 4.11765H11.3332C11.7014 4.11765 11.9998 4.43368 11.9998 4.82353V12.5882C11.9998 13.3679 11.4029 14 10.6665 14ZM6.6665 4.11765H9.33317C9.70136 4.11765 9.99984 3.80161 9.99984 3.41176V2.70588C9.99984 2.31603 9.70136 2 9.33317 2H6.6665C6.29831 2 5.99984 2.31603 5.99984 2.70588V3.41176C5.99984 3.80161 6.29831 4.11765 6.6665 4.11765Z" stroke="#8D7EFD" stroke-width="0.888889" stroke-linecap="round" stroke-linejoin="round"/>
</svg>
