<svg width="8" height="3" viewBox="0 0 10 3" fill="none" xmlns="http://www.w3.org/2000/svg">
<path d="M5 2C5.27614 2 5.5 1.77614 5.5 1.5C5.5 1.22386 5.27614 1 5 1C4.72386 1 4.5 1.22386 4.5 1.5C4.5 1.77614 4.72386 2 5 2Z" stroke="#8D7EFD" stroke-linecap="round" stroke-linejoin="round"/>
<path d="M8.5 2C8.77614 2 9 1.77614 9 1.5C9 1.22386 8.77614 1 8.5 1C8.22386 1 8 1.22386 8 1.5C8 1.77614 8.22386 2 8.5 2Z" stroke="#8D7EFD" stroke-linecap="round" stroke-linejoin="round"/>
<path d="M1.5 2C1.77614 2 2 1.77614 2 1.5C2 1.22386 1.77614 1 1.5 1C1.22386 1 1 1.22386 1 1.5C1 1.77614 1.22386 2 1.5 2Z" stroke="#8D7EFD" stroke-linecap="round" stroke-linejoin="round"/>
</svg>
